<svg xmlns="http://www.w3.org/2000/svg" xmlns:xlink="http://www.w3.org/1999/xlink" width="500" zoomAndPan="magnify" viewBox="0 0 375 374.999991" height="500" preserveAspectRatio="xMidYMid meet" version="1.0"><defs><clipPath id="1fe86de09e"><path d="M 21.777344 69.175781 L 353.210938 69.175781 L 353.210938 305.804688 L 21.777344 305.804688 Z M 21.777344 69.175781 " clip-rule="nonzero"/></clipPath></defs><g clip-path="url(#1fe86de09e)"><path fill="#f39c12" d="M 22.015625 262.140625 C 23.589844 278.847656 29.503906 295.214844 44.644531 302.453125 C 59.785156 309.691406 80.691406 305.019531 88.519531 290.175781 C 70.90625 304.140625 54.355469 293.726562 51.59375 279.203125 C 45.996094 249.734375 60.496094 215.039062 66.78125 203 C 86.09375 166 92.140625 154.570312 107.027344 134.449219 C 117.9375 119.710938 131.5 109.09375 145.945312 112.339844 C 156.117188 114.621094 162.617188 122.570312 163.671875 132.144531 C 165.945312 152.726562 163.785156 174.898438 165.308594 195.695312 C 168.648438 241.183594 182.507812 262.117188 206.386719 264.769531 C 219.019531 266.175781 231.472656 259.390625 241.472656 251.652344 C 278.625 222.902344 340.863281 115.453125 353.210938 91.351562 C 353.210938 91.351562 296.039062 172.6875 257.191406 200.507812 C 245.105469 209.160156 227.371094 226.410156 213.167969 222.019531 C 188.214844 214.308594 200.246094 152.214844 199.828125 127.328125 C 199.015625 78.726562 169.496094 61.445312 134.742188 72.292969 C 123.210938 75.886719 113.148438 83.230469 104.355469 91.507812 C 52.628906 140.199219 18.574219 225.558594 22.015625 262.140625 " fill-opacity="1" fill-rule="nonzero"/></g></svg>